<svg version="1.2" xmlns="http://www.w3.org/2000/svg" viewBox="0 0 29 24" width="29" height="24"><style>.a{fill:#424242}</style><path class="a" d="m26 6q0 0.4 0 0.8c0 8-5.9 17.2-16.9 17.2-3.3 0-6.5-1-9.1-2.7q0.7 0.1 1.4 0.1c2.8 0 5.4-1 7.4-2.6-2.6-0.1-4.8-1.8-5.5-4.2q0.5 0.1 1.1 0.1 0.8 0 1.5-0.2c-2.7-0.6-4.7-3-4.7-6q0 0 0-0.1c0.8 0.5 1.7 0.8 2.7 0.8-1.6-1.1-2.7-2.9-2.7-5 0-1.2 0.3-2.2 0.8-3.1 2.9 3.7 7.3 6.1 12.3 6.3q-0.2-0.6-0.2-1.3c0-3.4 2.7-6.1 6-6.1 1.7 0 3.2 0.7 4.3 1.9 1.4-0.2 2.7-0.8 3.8-1.4-0.4 1.4-1.4 2.5-2.6 3.3 1.2-0.1 2.3-0.5 3.4-0.9-0.8 1.2-1.8 2.2-3 3.1z"/></svg>